<svg xmlns="http://www.w3.org/2000/svg" viewBox="0 0 400 500" width="400" height="500">
  <defs>
    <filter id="shadow" x="-20%" y="-20%" width="140%" height="140%">
      <feDropShadow dx="0" dy="6" stdDeviation="8" flood-color="#000000" flood-opacity="0.12"/>
    </filter>
    <radialGradient id="grad" cx="50%" cy="40%" r="70%">
      <stop offset="0%" stop-color="white" stop-opacity="0.35"/>
      <stop offset="100%" stop-color="white" stop-opacity="0"/>
    </radialGradient>
  </defs>
  <rect width="400" height="500" fill="#fff7ed" rx="24"/>
  <g transform="translate(0,20)">
    <ellipse cx="200" cy="385" rx="90" ry="20" fill="#000000" opacity="0.08"/>
    <ellipse cx="160" cy="360" rx="32" ry="20" fill="#ff6a00" filter="url(#shadow)"/>
    <ellipse cx="240" cy="360" rx="32" ry="20" fill="#ff6a00" filter="url(#shadow)"/>
    <circle cx="200" cy="150" r="78" fill="#ff6a00" filter="url(#shadow)"/>
    <path d="M128 170 Q80 230 130 280 Q200 310 270 280 Q320 230 272 170 Z" fill="#ff6a00" filter="url(#shadow)"/>
    <path d="M140 230 L150 255 L165 235" stroke="#5a2a00" stroke-width="4" fill="none" opacity="0.5" stroke-linecap="round"/>
    <circle cx="110" cy="275" r="26" fill="#ff6a00" filter="url(#shadow)"/>
    <circle cx="290" cy="275" r="26" fill="#ff6a00" filter="url(#shadow)"/>
    <ellipse cx="170" cy="145" rx="16" ry="22" fill="white"/>
    <ellipse cx="230" cy="145" rx="16" ry="22" fill="white"/>
    <circle cx="172" cy="149" r="8" fill="#1a1a2e"/>
    <circle cx="232" cy="149" r="8" fill="#1a1a2e"/>
    <circle cx="170" cy="142" r="4" fill="white" opacity="0.9"/>
    <path d="M182 188 Q200 205 218 188" stroke="#1a1a2e" stroke-width="4" fill="none" stroke-linecap="round"/>
    <circle cx="200" cy="150" r="78" fill="url(#grad)" pointer-events="none"/>
  </g>
  <rect x="20" y="420" width="360" height="60" rx="16" fill="#ff6a00" opacity="0.12"/>
  <text x="200" y="453" text-anchor="middle" font-family="system-ui, sans-serif" font-size="20" font-weight="700" fill="#1a1a2e">Brix · Stein-Golem</text>
  <text x="200" y="476" text-anchor="middle" font-family="system-ui, sans-serif" font-size="14" fill="#4a4a5a">Mechanik-Stadt · mutig, ehrlich, tollpatschig</text>
</svg>
