<svg xmlns="http://www.w3.org/2000/svg" viewBox="0 0 400 500" width="400" height="500">
  <defs>
    <filter id="shadow" x="-20%" y="-20%" width="140%" height="140%">
      <feDropShadow dx="0" dy="6" stdDeviation="8" flood-color="#000000" flood-opacity="0.12"/>
    </filter>
    <radialGradient id="grad" cx="50%" cy="40%" r="70%">
      <stop offset="0%" stop-color="white" stop-opacity="0.35"/>
      <stop offset="100%" stop-color="white" stop-opacity="0"/>
    </radialGradient>
  </defs>
  <rect width="400" height="500" fill="#edfcfc" rx="24"/>
  <g transform="translate(0,20)">
    <ellipse cx="200" cy="385" rx="90" ry="20" fill="#000000" opacity="0.08"/>
    <ellipse cx="160" cy="360" rx="28" ry="18" fill="#00f0ff" filter="url(#shadow)"/>
    <ellipse cx="240" cy="360" rx="28" ry="18" fill="#00f0ff" filter="url(#shadow)"/>
    <circle cx="200" cy="150" r="75" fill="#00f0ff" filter="url(#shadow)"/>
    <ellipse cx="200" cy="225" rx="92" ry="72" fill="#00f0ff" filter="url(#shadow)"/>
    <ellipse cx="128" cy="182" rx="20" ry="36" fill="#00f0ff" transform="rotate(-20 128 182)" filter="url(#shadow)"/>
    <ellipse cx="272" cy="182" rx="20" ry="36" fill="#00f0ff" transform="rotate(20 272 182)" filter="url(#shadow)"/>
    <circle cx="120" cy="275" r="24" fill="#00f0ff" filter="url(#shadow)"/>
    <circle cx="280" cy="275" r="24" fill="#00f0ff" filter="url(#shadow)"/>
    <ellipse cx="170" cy="145" rx="15" ry="21" fill="white"/>
    <ellipse cx="230" cy="145" rx="15" ry="21" fill="white"/>
    <circle cx="172" cy="149" r="8" fill="#1a1a2e"/>
    <circle cx="232" cy="149" r="8" fill="#1a1a2e"/>
    <circle cx="170" cy="142" r="4" fill="white" opacity="0.9"/>
    <path d="M185 185 Q200 198 215 185" stroke="#1a1a2e" stroke-width="4" fill="none" stroke-linecap="round"/>
    <circle cx="250" cy="205" r="8" fill="#ff6a00" opacity="0.4"/>
    <circle cx="155" cy="240" r="6" fill="#ff6a00" opacity="0.4"/>
    <circle cx="200" cy="150" r="75" fill="url(#grad)" pointer-events="none"/>
  </g>
  <rect x="20" y="420" width="360" height="60" rx="16" fill="#00f0ff" opacity="0.12"/>
  <text x="200" y="453" text-anchor="middle" font-family="system-ui, sans-serif" font-size="20" font-weight="700" fill="#1a1a2e">Nixie · Axolotl</text>
  <text x="200" y="476" text-anchor="middle" font-family="system-ui, sans-serif" font-size="14" fill="#4a4a5a">Sonnenstrand · neugierig, fröhlich, wasseraffin</text>
</svg>
